Coordinates
version=1
nRows=17
nColumns=38
inDegrees=no

Units are S.I. units (second, meters, Newtons, ...)
If the header above contains a line with 'inDegrees', this indicates whether rotational values are in degrees (yes) or radians (no).

endheader
time	pelvis_tilt	pelvis_list	pelvis_rotation	pelvis_tx	pelvis_ty	pelvis_tz	hip_flexion_r	hip_adduction_r	hip_rotation_r	knee_angle_r	ankle_angle_r	subtalar_angle_r	mtp_angle_r	hip_flexion_l	hip_adduction_l	hip_rotation_l	knee_angle_l	ankle_angle_l	subtalar_angle_l	mtp_angle_l	lumbar_extension	lumbar_bending	lumbar_rotation	arm_flex_r	arm_add_r	arm_rot_r	elbow_flex_r	pro_sup_r	wrist_flex_r	wrist_dev_r	arm_flex_l	arm_add_l	arm_rot_l	elbow_flex_l	pro_sup_l	wrist_flex_l	wrist_dev_l
15	2.93865	1.37036	-1.32688	0.637969	-0.958676	0.944485	-0.386703	0.0900587	-0.421407	0.107708	-0.369998	0	0	0.046417	-0.0763296	-0.0254949	0.277559	-0.34406	0	0	-0.292093	0.134614	0.231678	0.570778	-0.346101	0.348857	1.4552	1.5708	0	0	0.447024	-0.723912	0.383105	1.04044	1.5708	0	0
15.01	2.92568	1.38044	-1.31523	0.640201	-0.962775	0.943395	-0.383243	0.0993364	-0.405994	0.0598256	-0.334742	0	0	0.0673586	-0.0785687	-0.030731	0.28878	-0.352618	0	0	-0.280757	0.135187	0.238264	0.563835	-0.345187	0.343783	1.46188	1.5708	0	0	0.470661	-0.714265	0.420192	1.06232	1.5708	0	0
15.02	2.85427	1.37454	-1.24763	0.642451	-0.967798	0.944601	-0.384067	0.116893	-0.387831	0.0721037	-0.413825	0	0	0.0672408	-0.0981846	-0.0220334	0.27941	-0.357381	0	0	-0.287315	0.150364	0.252268	0.559608	-0.349771	0.337992	1.47096	1.5708	0	0	0.498914	-0.699712	0.457849	1.08286	1.5708	0	0
15.03	2.83728	1.37956	-1.23404	0.644797	-0.972201	0.943941	-0.385908	0.124871	-0.356531	0.0326734	-0.434835	0	0	0.083332	-0.10261	-0.0319864	0.290817	-0.365197	0	0	-0.284376	0.151842	0.253338	0.561714	-0.345133	0.343322	1.47546	1.5708	0	0	0.511958	-0.698741	0.481123	1.11531	1.5708	0	0
15.04	2.83012	1.3802	-1.22794	0.646755	-0.976458	0.943488	-0.38057	0.128113	-0.359835	0.0338691	-0.414133	0	0	0.0903228	-0.106329	-0.0319254	0.292854	-0.365885	0	0	-0.285591	0.151975	0.252334	0.564334	-0.341539	0.34814	1.47956	1.5708	0	0	0.528222	-0.699572	0.506804	1.1498	1.5708	0	0
15.05	2.82543	1.37991	-1.22422	0.648713	-0.980571	0.943072	-0.380361	0.132612	-0.356447	0.023689	-0.419916	0	0	0.0964283	-0.11009	-0.033425	0.295888	-0.366614	0	0	-0.288372	0.14988	0.25237	0.564954	-0.339082	0.349725	1.48608	1.5708	0	0	0.547329	-0.701188	0.533738	1.18714	1.5708	0	0
15.06	2.81775	1.37524	-1.21855	0.650677	-0.984679	0.943111	-0.384595	0.138817	-0.351902	0.0131493	-0.426857	0	0	0.0946646	-0.116498	-0.0294046	0.291123	-0.363697	0	0	-0.29784	0.154499	0.24858	0.573643	-0.332902	0.359925	1.48958	1.5708	0	0	0.570279	-0.716558	0.578616	1.22355	1.5708	0	0
15.07	2.83065	1.36525	-1.23118	0.652507	-0.988964	0.94332	-0.395995	0.143259	-0.348672	0.0012288	-0.445279	0	0	0.089573	-0.120019	-0.0317265	0.293708	-0.360368	0	0	-0.314745	0.147393	0.240676	0.582068	-0.327926	0.367012	1.49518	1.5708	0	0	0.558402	-0.708988	0.538169	1.27548	1.5708	0	0
15.08	2.90301	1.3156	-1.29847	0.654575	-0.994987	0.945188	-0.446417	0.145627	-0.369752	0.00433632	-0.442161	0	0	0.0362567	-0.122375	-0.0370248	0.286243	-0.357612	0	0	-0.447186	0.0430341	0.145607	0.626781	-0.291764	0.37906	1.57012	1.5708	0	0	0.284216	-0.374243	-0.246821	1.62737	1.5708	0	0
15.09	2.89465	1.3114	-1.28963	0.655968	-0.998958	0.945471	-0.429445	0.146116	-0.400728	0.0594991	-0.346627	0	0	0.0434793	-0.12784	-0.0390859	0.300697	-0.350177	0	0	-0.454508	0.0474976	0.141077	0.63145	-0.288118	0.386512	1.5758	1.5708	0	0	0.292396	-0.376238	-0.220824	1.64751	1.5708	0	0
15.1	2.91	1.32942	-1.30874	0.658342	-1.00246	0.943014	-0.434069	0.149411	-0.379092	0	-0.365059	0	0	0.0718388	-0.11965	-0.0452847	0.316076	-0.346899	0	0	-0.437747	0.0380293	0.137217	0.630916	-0.281551	0.391429	1.58022	1.5708	0	0	0.299807	-0.379568	-0.196116	1.66406	1.5708	0	0
15.11	2.8915	1.41244	-1.30281	0.661928	-1.00451	0.933721	-0.369396	0.144845	-0.385629	0	-0.415975	0	0	0.175548	-0.102735	-0.0338232	0.350358	-0.302927	0	0	-0.341952	0.0116399	0.14972	0.598877	-0.278705	0.37644	1.59203	1.5708	0	0	0.307604	-0.382935	-0.151382	1.66813	1.5708	0	0
15.12	2.90981	1.4262	-1.32615	0.664093	-1.00826	0.93163	-0.357748	0.143984	-0.388718	0	-0.412776	0	0	0.196305	-0.0971336	-0.0312685	0.358267	-0.298156	0	0	-0.329374	0.00617272	0.148856	0.599512	-0.273339	0.382503	1.59722	1.5708	0	0	0.316272	-0.383172	-0.131254	1.68009	1.5708	0	0
15.13	2.89893	1.42694	-1.31462	0.665245	-1.01161	0.931775	-0.351643	0.14604	-0.384638	0	-0.408516	0	0	0.2043	-0.0981187	-0.0267836	0.364457	-0.29518	0	0	-0.32996	0.0104738	0.146085	0.598384	-0.271168	0.386283	1.60492	1.5708	0	0	0.325669	-0.37973	-0.111018	1.68951	1.5708	0	0
15.14	2.89505	1.42848	-1.30828	0.666057	-1.01476	0.932058	-0.346313	0.146131	-0.376469	0	-0.396241	0	0	0.213918	-0.0963472	-0.0266814	0.372931	-0.294121	0	0	-0.330086	0.0135968	0.143471	0.594241	-0.270846	0.38665	1.61522	1.5708	0	0	0.337225	-0.37405	-0.0900369	1.69559	1.5708	0	0
15.15	2.8929	1.42821	-1.30391	0.666913	-1.01766	0.932602	-0.338772	0.147752	-0.382082	0	-0.379956	0	0	0.22153	-0.0952821	-0.0194695	0.382019	-0.292097	0	0	-0.3317	0.0170659	0.139013	0.591592	-0.268888	0.389481	1.62316	1.5708	0	0	0.346423	-0.367761	-0.0744265	1.70034	1.5708	0	0
15.16	2.90368	1.43291	-1.31285	0.667741	-1.02041	0.932348	-0.331499	0.145804	-0.378394	0	-0.363953	0	0	0.230152	-0.0901886	-0.00499258	0.38395	-0.289576	0	0	-0.328107	0.016967	0.133885	0.587664	-0.26684	0.391094	1.63205	1.5708	0	0	0.354519	-0.361554	-0.0607905	1.70486	1.5708	0	0
